<?xml version="1.0" standalone="no"?>
<!DOCTYPE svg PUBLIC "-//W3C//DTD SVG 20010904//EN"
 "http://www.w3.org/TR/2001/REC-SVG-20010904/DTD/svg10.dtd">
<svg version="1.0" xmlns="http://www.w3.org/2000/svg"
 width="400.000000pt" height="400.000000pt" viewBox="0 0 400.000000 400.000000"
 preserveAspectRatio="xMidYMid meet">
<metadata>
Created by potrace 1.14, written by Peter Selinger 2001-2017
</metadata>
<g transform="translate(0.000000,400.000000) scale(0.100000,-0.100000)"
fill="#000000" stroke="none">
<path d="M1813 2710 c-70 -14 -125 -49 -195 -123 -61 -64 -82 -97 -60 -97 4 0
29 27 56 60 80 97 158 140 255 143 56 2 111 -19 243 -93 24 -14 72 -25 146
-33 123 -14 146 -26 190 -90 36 -52 50 -99 58 -197 6 -73 5 -76 -27 -125 -24
-35 -46 -54 -74 -65 -22 -8 -60 -27 -85 -42 -25 -14 -84 -43 -132 -63 -98 -42
-109 -51 -110 -94 -1 -31 -1 -31 -57 -31 l-57 0 -19 43 c-19 39 -25 44 -95 67
-131 45 -125 38 -125 138 0 108 -10 162 -32 162 -11 0 -14 -6 -8 -22 4 -13 9
-66 12 -118 5 -112 -10 -152 -67 -182 -64 -32 -139 9 -177 99 -17 41 -16 176
1 225 8 21 32 69 55 107 39 66 51 101 34 101 -14 0 -112 -184 -122 -230 -25
-110 -6 -214 51 -276 71 -77 139 -81 210 -14 36 35 42 38 62 26 11 -8 51 -24
89 -36 69 -22 97 -47 97 -85 0 -12 -26 -88 -59 -171 -78 -198 -81 -212 -48
-238 l26 -21 -42 -1 c-95 -4 -163 -19 -209 -49 -26 -16 -47 -33 -48 -36 0 -8
95 -29 131 -29 37 0 97 25 126 52 l23 21 0 -30 c0 -23 5 -32 23 -37 30 -8 372
-8 380 1 4 3 48 7 98 7 110 1 120 9 101 81 -11 41 -10 49 6 73 27 38 33 60 19
66 -7 2 -4 5 5 5 11 1 20 12 23 29 4 15 11 35 16 45 6 11 8 21 5 25 -3 3 2 11
13 18 21 15 33 81 22 121 -9 35 -30 42 -24 9 3 -14 2 -33 -1 -42 -6 -15 -8
-15 -26 1 -14 12 -29 16 -52 12 -21 -4 -40 -1 -52 8 -11 8 -37 15 -58 15 -45
0 -49 16 -14 49 25 23 25 23 104 7 100 -20 118 -20 126 2 4 9 13 29 22 45 24
42 9 114 -32 155 -17 17 -39 32 -48 32 -21 0 -21 2 15 56 28 40 32 54 30 108
-3 139 -21 194 -82 261 -50 54 -70 61 -199 75 -84 8 -112 15 -143 36 -21 13
-35 29 -31 35 4 6 11 6 20 -2 11 -9 14 -8 14 6 0 15 -6 17 -35 12 -25 -4 -56
2 -101 19 -67 25 -92 27 -161 14z m701 -665 c35 -32 45 -107 20 -153 -17 -32
-20 -34 -59 -27 -22 4 -58 10 -80 14 -36 6 -40 9 -52 51 -23 77 -2 120 67 137
46 12 74 6 104 -22z m-204 -57 c0 -19 -2 -20 -10 -8 -13 19 -13 30 0 30 6 0
10 -10 10 -22z m-20 -60 c0 -15 5 -28 10 -28 15 0 12 -19 -5 -36 -26 -27 -50
-13 -53 31 -2 22 -8 44 -13 50 -12 12 -12 35 1 35 6 0 13 -13 17 -30 8 -44 27
-37 20 8 -6 34 -5 35 8 18 8 -11 15 -32 15 -48z m-82 7 c7 -14 12 -42 12 -61
0 -27 5 -37 19 -41 17 -4 35 -36 32 -56 -1 -4 3 -17 9 -27 10 -19 7 -20 -60
-20 -58 0 -72 3 -77 18 -3 9 -15 40 -27 67 -27 62 -21 92 23 122 43 29 55 29
69 -2z m-95 -177 c14 -40 24 -74 23 -76 -2 -1 -15 2 -29 9 -34 15 -73 4 -92
-25 -16 -23 -25 -159 -14 -196 3 -11 -5 -16 -27 -18 l-31 -3 18 53 c19 56 23
86 13 112 -12 31 -24 16 -24 -29 0 -47 -20 -107 -39 -119 -7 -5 -9 3 -5 24 5
23 3 30 -10 30 -11 0 -16 -9 -16 -30 0 -31 -6 -35 -34 -24 -27 10 -19 50 39
195 30 76 55 145 55 154 0 12 14 15 74 15 l73 0 26 -72z m268 6 c9 -12 23 -14
50 -10 26 4 40 2 49 -9 7 -8 22 -15 33 -15 19 0 20 -1 2 -20 -21 -23 -52 -25
-79 -5 -11 8 -39 15 -61 15 -40 0 -58 11 -79 48 -11 19 68 16 85 -4z m-126
-64 c-4 -6 -2 -17 4 -24 22 -26 2 -47 -42 -44 -32 2 -41 7 -42 23 -2 11 -6 28
-10 38 -6 15 -1 17 45 17 33 0 49 -4 45 -10z m40 1 c3 -5 1 -12 -5 -16 -5 -3
-10 1 -10 9 0 18 6 21 15 7z m60 -21 c0 -9 -7 -14 -17 -12 -10 2 -18 -3 -18
-11 0 -8 -9 -17 -20 -20 -13 -3 -20 0 -20 9 0 8 5 13 12 12 7 -2 17 7 23 20
11 24 40 26 40 2z m45 16 c0 -3 -4 -8 -10 -11 -5 -3 -10 -1 -10 4 0 6 5 11 10
11 6 0 10 -2 10 -4z m-290 -31 c16 -8 34 -24 40 -35 9 -17 8 -20 -9 -20 -10 0
-29 -9 -42 -21 l-24 -21 25 6 c72 18 77 18 83 2 7 -18 -26 -36 -64 -36 -12 0
-17 -4 -13 -11 4 -7 22 -9 49 -4 51 7 54 4 65 -78 16 -113 26 -107 -181 -107
-199 0 -200 0 -179 64 l11 35 82 -2 c69 -2 81 0 78 13 -8 30 -13 150 -7 174 7
27 31 56 47 56 6 0 23 -7 39 -15z m300 -4 c0 -6 -4 -13 -10 -16 -5 -3 -10 1
-10 9 0 9 5 16 10 16 6 0 10 -4 10 -9z m-40 -26 c0 -8 -4 -15 -10 -15 -5 0
-10 7 -10 15 0 8 5 15 10 15 6 0 10 -7 10 -15z m93 -23 c7 -9 6 -11 -7 -6 -9
3 -16 16 -15 28 0 14 2 16 6 6 3 -8 10 -21 16 -28z m-137 -9 c-10 -10 -19 5
-10 18 6 11 8 11 12 0 2 -7 1 -15 -2 -18z m94 12 c0 -8 -4 -15 -10 -15 -5 0
-10 7 -10 15 0 8 5 15 10 15 6 0 10 -7 10 -15z m-166 -27 c3 -13 7 -63 8 -111
3 -93 10 -107 54 -107 12 0 36 13 53 29 34 32 46 25 39 -21 -3 -21 -8 -23 -63
-24 -93 -1 -91 -2 -98 76 -3 38 -15 90 -26 116 -27 59 -26 64 4 64 17 0 26 -7
29 -22z m37 -11 c-8 -8 -11 -7 -11 4 0 9 3 19 7 23 4 4 9 2 11 -4 3 -7 -1 -17
-7 -23z m85 6 c-10 -10 -19 5 -10 18 6 11 8 11 12 0 2 -7 1 -15 -2 -18z m-26
-11 c0 -13 -12 -22 -22 -16 -10 6 -1 24 13 24 5 0 9 -4 9 -8z m80 4 c0 -3 -4
-8 -10 -11 -5 -3 -10 -1 -10 4 0 6 5 11 10 11 6 0 10 -2 10 -4z m-124 -43
c-10 -10 -19 5 -10 18 6 11 8 11 12 0 2 -7 1 -15 -2 -18z m46 -15 c-7 -7 -12
-8 -12 -2 0 6 3 14 7 17 3 4 9 5 12 2 2 -3 -1 -11 -7 -17z m44 -15 c-10 -10
-19 5 -10 18 6 11 8 11 12 0 2 -7 1 -15 -2 -18z m-66 -3 c0 -5 -4 -10 -10 -10
-5 0 -10 5 -10 10 0 6 5 10 10 10 6 0 10 -4 10 -10z m32 -22 c-7 -7 -12 -8
-12 -2 0 6 3 14 7 17 3 4 9 5 12 2 2 -3 -1 -11 -7 -17z m-62 -8 c0 -5 -2 -10
-4 -10 -3 0 -8 5 -11 10 -3 6 -1 10 4 10 6 0 11 -4 11 -10z m40 -10 c0 -5 -4
-10 -10 -10 -5 0 -10 5 -10 10 0 6 5 10 10 10 6 0 10 -4 10 -10z m40 -10 c0
-5 -5 -10 -11 -10 -5 0 -7 5 -4 10 3 6 8 10 11 10 2 0 4 -4 4 -10z m-70 -24
c0 -3 -4 -8 -10 -11 -5 -3 -10 -1 -10 4 0 6 5 11 10 11 6 0 10 -2 10 -4z m40
-6 c0 -5 -5 -10 -11 -10 -5 0 -7 5 -4 10 3 6 8 10 11 10 2 0 4 -4 4 -10z
m-558 -29 c-42 -36 -100 -53 -152 -45 l-42 7 29 23 c18 15 42 24 68 24 22 1
49 5 60 10 11 5 31 9 45 9 25 0 25 0 -8 -28z"/>
<path d="M1970 2635 c-11 -13 -10 -15 6 -12 20 3 31 20 16 25 -5 1 -15 -4 -22
-13z"/>
<path d="M1962 2424 c-22 -15 -31 -64 -13 -64 18 0 41 32 41 56 0 28 1 28 -28
8z"/>
<path d="M2040 2399 c-7 -11 -9 -28 -5 -37 6 -15 9 -14 26 7 10 13 19 29 19
37 0 21 -28 17 -40 -7z"/>
<path d="M1517 2332 c-34 -38 -50 -95 -49 -175 2 -86 17 -129 63 -178 42 -45
75 -38 114 25 27 45 30 57 29 127 -1 93 -23 158 -65 194 -36 29 -69 32 -92 7z"/>
<path d="M2220 2305 c-19 -23 -7 -48 32 -63 50 -19 88 -9 88 23 0 13 -10 31
-22 39 -28 20 -82 21 -98 1z"/>
</g>
</svg>
